<svg width="194" height="194" viewBox="0 0 194 194" fill="none" xmlns="http://www.w3.org/2000/svg">
<circle cx="97" cy="97" r="97" fill="#DBEAE1"/>
<path d="M97.0605 133.002C83.3103 98.6262 55.8099 112.376 55.8099 112.376C43.7785 86.5947 17.9968 102.064 17.9968 102.064C50.6536 69.407 76.4352 71.1257 76.4352 71.1257C76.4352 71.1257 62.685 78.0009 72.9977 88.3135C83.3103 98.6262 95.3413 79.7192 90.1854 71.1257L91.1923 72.1326C92.7486 73.6889 94.8595 74.5633 97.0605 74.5633H97.0606C99.2616 74.5633 101.372 73.6889 102.929 72.1326L103.936 71.1257C98.7798 79.7192 110.811 98.6262 121.123 88.3135C131.436 78.0009 117.686 71.1257 117.686 71.1257C117.686 71.1257 143.468 69.407 176.124 102.064C176.124 102.064 150.343 86.5947 138.311 112.376C138.311 112.376 110.811 98.6262 97.0605 133.002Z" fill="#1E8A49" stroke="#1E8A49" stroke-miterlimit="10" stroke-linecap="round" stroke-linejoin="round"/>
</svg>
